<svg xmlns="http://www.w3.org/2000/svg" width="73" height="72" viewBox="0 0 73 72" fill="none"><path d="M22.1 57.6001C25.4136 57.6001 28.0997 54.9139 28.0997 51.6003C28.0997 48.2868 25.4136 45.6006 22.1 45.6006C18.7864 45.6006 16.1002 48.2868 16.1002 51.6003C16.1002 54.9139 18.7864 57.6001 22.1 57.6001Z" fill="white" fill-opacity="0.9"></path><path d="M65.3 48.0011H55.6722C54.5756 46.5524 52.8548 45.6006 50.9 45.6006C47.5859 45.6006 44.9003 48.2862 44.9003 51.6011C44.9003 54.9152 47.5859 57.6008 50.9 57.6008C53.8016 57.6008 56.2208 55.5387 56.7781 52.8006H65.3V48.0011Z" fill="white" fill-opacity="0.9"></path><path d="M36.5 23.9998H22.1L17.2997 36L7.69995 38.3998V52.8005H12.5002V51.601C12.5002 46.3039 16.8051 41.9998 22.1 41.9998C27.3927 41.9998 31.6997 46.3039 31.6997 51.601V52.8005H41.3002V48.001H36.5V23.9998Z" fill="white" fill-opacity="0.9"></path><path d="M31.6997 14.3992V19.1994H41.3002V43.2006H65.2999V14.3992H31.6997Z" fill="white" fill-opacity="0.9"></path></svg>