<svg xmlns="http://www.w3.org/2000/svg" width="73" height="72" viewBox="0 0 73 72" fill="none"><path d="M53.0498 40.7996C46.4244 40.7996 41.0503 46.1744 41.0503 52.7998C41.0503 59.426 46.4244 64.8 53.0498 64.8C59.676 64.8 65.05 59.426 65.05 52.7998C65.05 46.1744 59.676 40.7996 53.0498 40.7996ZM52.2016 58.104L45.8383 51.7378L48.3835 49.1926L52.2016 53.0108L57.7183 47.4963L60.2635 50.0415L52.2016 58.104Z" fill="white" fill-opacity="0.9"></path><path d="M29.05 7.19995H14.65L7.44995 26.4002H29.05V7.19995Z" fill="white" fill-opacity="0.9"></path><path d="M33.8503 26.4002H55.4503L48.2503 7.19995H33.8503V26.4002Z" fill="white" fill-opacity="0.9"></path><path d="M36.25 52.7997C36.25 43.5376 43.7876 35.9999 53.0497 35.9999H55.4502V31.1997H7.44995V59.9997H36.25V52.7997ZM26.6502 43.1999H14.65V38.4004H26.6502V43.1999Z" fill="white" fill-opacity="0.9"></path></svg>